<svg xmlns="http://www.w3.org/2000/svg" fill="none" viewBox="0 0 256 90">
<path d="M0 90.0009H256V16.684H0V90.0009Z" fill="#767575"/>
<path d="M97.9365 58.3947C98.1177 45.7327 90.7305 36.8043 78.4814 36.8043C67.8843 36.8043 59.7363 44.1375 59.7363 55.6021C59.7363 67.3345 67.9423 73.7344 78.543 73.7344C86.2562 73.7344 94.5853 70.873 96.8569 62.2085H84.2962C83.347 64.2704 81.4558 65.2727 79.3726 65.2727C75.891 65.2727 72.8586 62.5337 72.8586 58.3947H97.9365ZM72.8586 51.3369C72.8586 47.6033 75.0794 45.2698 78.9922 45.2698C82.0862 45.2698 84.7962 48.1427 84.7962 51.3369" fill="white"/>
<path d="M102.036 37.8108V84.6104H115.166V69.2706C117.386 72.2162 120.031 73.7387 123.632 73.7387C131.009 73.7387 139.102 68.7313 139.102 55.0058C139.102 45.4004 134.302 36.8086 124.324 36.8086C120.531 36.8086 115.796 38.7327 113.974 43.0019H113.843V37.8108H102.036ZM120.288 63.1386C116.876 63.1386 114.916 59.8105 114.916 54.9408C114.916 50.27 117.057 47.0759 120.212 47.0759C123.694 47.0759 125.973 49.6695 125.973 55.2048C125.973 60.0018 123.763 63.1386 120.288 63.1386Z" fill="white"/>
<path d="M143.519 37.8118V84.6113H156.659V69.2716C158.869 72.2171 161.514 73.7396 165.115 73.7396C172.503 73.7396 180.585 68.7322 180.585 55.0068C180.585 45.4013 175.785 36.8096 165.815 36.8096C162.032 36.8096 157.29 38.7337 155.457 43.0028H155.326V37.8118H143.519ZM161.771 63.1395C158.359 63.1395 156.399 59.8115 156.399 54.9418C156.399 50.271 158.551 47.0768 161.71 47.0768C165.166 47.0768 167.456 49.6704 167.456 55.2057C167.456 60.0027 165.246 63.1395 161.771 63.1395Z" fill="white"/>
<path d="M222.38 58.3956C222.568 45.7337 215.185 36.8053 202.936 36.8053C192.328 36.8053 184.172 44.1385 184.172 55.6031C184.172 67.3355 192.396 73.7354 202.993 73.7354C210.692 73.7354 219.036 70.874 221.307 62.2095H208.739C207.79 64.2714 205.899 65.2736 203.823 65.2736C200.352 65.2736 197.309 62.5347 197.309 58.3956H222.38ZM197.309 51.3378C197.309 47.6043 199.523 45.2708 203.443 45.2708C206.529 45.2708 209.25 48.1437 209.25 51.3378" fill="white"/>
<path d="M226.99 72.7373H240.131V24.7328H226.99V72.7373Z" fill="white"/>
<path d="M58.9409 25.0703L77.186 0.0141277H91.2321L73.3928 25.0626" fill="#E51D37"/>
<path d="M28.9097 46.6389L44.4847 25.1862H58.8677L43.4992 46.8684L58.3496 72.6055H43.8108" fill="white"/>
<path d="M16.1304 72.6055H28.7346V25.2475H16.1304V72.6055Z" fill="white"/>
<path d="M65.0713 16.6298L77.1828 0.000972748H91.2289L79.4797 16.6222" fill="#E51D37"/>
</svg>