<svg xmlns="http://www.w3.org/2000/svg" xmlns:xlink="http://www.w3.org/1999/xlink" viewBox="0 0 125.3 40.02">
  <defs>
    <clipPath id="clip-path">
      <rect id="Rectangle_4238" data-name="Rectangle 4238" width="125.31" height="40" transform="translate(0 0)" fill="none"/>
    </clipPath>
  </defs>
  <g id="Sembcorp-Logo" clip-path="url(#clip-path)">
    <path id="Path_14838" data-name="Path 14838" d="M93.947,35.387a6.372,6.372,0,0,0,2.5.663c.882,0,1.562-.219,1.562-.992,0-.389-.192-.762-1.1-1.266l-.992-.581c-1.008-.608-2.115-1.249-2.115-2.827a3.194,3.194,0,0,1,3.463-2.844,7.891,7.891,0,0,1,2.51.411l-.137,1.868a5.584,5.584,0,0,0-2.121-.444c-.975,0-1.381.362-1.381.975s.427.838,1.129,1.282l1.184.756c1.249.8,1.874,1.364,1.874,2.532,0,1.852-1.562,2.959-3.742,2.959a8.016,8.016,0,0,1-2.778-.488Z" transform="translate(-43.591 -12.724)" fill="#231f20"/>
    <path id="Path_14839" data-name="Path 14839" d="M113.607,31.847c0-1.775-.581-2.674-1.644-2.674-1.266,0-1.792,1.348-1.792,2.674Zm1.836,5.392a7.5,7.5,0,0,1-3,.641c-3.227,0-4.63-2.318-4.63-5.025,0-3,1.573-5.315,4.126-5.315,2.159,0,4.011,1.266,4.011,5.353v.471h-5.8c0,1.71.685,2.74,2.548,2.74a3.962,3.962,0,0,0,2.63-.784Z" transform="translate(-49.92 -12.724)" fill="#231f20"/>
    <path id="Path_14840" data-name="Path 14840" d="M125.187,29.319a15.854,15.854,0,0,0-.077-1.644h2.411c0,.548.082,1.052.082,1.578h.038a2.778,2.778,0,0,1,2.526-1.737,2.592,2.592,0,0,1,2.553,1.611,3.107,3.107,0,0,1,2.685-1.6c2.192,0,2.877,1.556,2.877,3.995v6.192h-2.411V31.385c0-1.249-.389-1.868-1.282-1.868-1.1,0-1.644,1.014-1.644,2.121v6.077h-2.416V31.385c0-1.249-.395-1.868-1.288-1.868-1.1,0-1.644,1.014-1.644,2.121v6.077h-2.416Z" transform="translate(-57.74 -12.711)" fill="#231f20"/>
    <path id="Path_14841" data-name="Path 14841" d="M156.615,32.456c1.4,0,1.77-1.167,1.77-3.479,0-2.005-.466-3.288-1.808-3.288s-1.874,1.419-1.874,3.364.488,3.425,1.912,3.425M154.7,19.492v6.027h.044a2.685,2.685,0,0,1,2.586-1.6c2.164,0,3.469,1.912,3.469,5.184,0,2.784-1.03,5.156-3.523,5.156a2.679,2.679,0,0,1-2.663-1.715h-.066a13.6,13.6,0,0,1-.077,1.556H152.21a11.575,11.575,0,0,0,.082-1.71V19.47Z" transform="translate(-69.991 -9.075)" fill="#231f20"/>
    <path id="Path_14842" data-name="Path 14842" d="M177.245,37.469a6.7,6.7,0,0,1-2.373.411c-3.288,0-4.712-2.318-4.712-5.156s1.479-5.184,4.849-5.184a6.576,6.576,0,0,1,2.1.411l-.132,1.907a3.88,3.88,0,0,0-1.693-.482c-1.836,0-2.636,1.227-2.636,3.364,0,1.868.9,3.288,2.74,3.288a3.8,3.8,0,0,0,1.71-.488Z" transform="translate(-78.105 -12.724)" fill="#231f20"/>
    <path id="Path_14843" data-name="Path 14843" d="M189.006,36.175c1.556,0,1.907-1.792,1.907-3.468s-.351-3.447-1.907-3.447-1.929,1.775-1.929,3.447.373,3.468,1.929,3.468m0-8.625c2.044,0,4.384,1.063,4.384,5.156,0,4.2-2.356,5.178-4.384,5.178s-4.416-.975-4.416-5.178c0-4.093,2.373-5.156,4.416-5.156" transform="translate(-84.628 -12.728)" fill="#231f20"/>
    <path id="Path_14844" data-name="Path 14844" d="M203.532,29.353a13.153,13.153,0,0,0-.082-1.644h2.192c0,.6.082,1.227.082,1.83h.038a2.8,2.8,0,0,1,2.548-1.989,3.082,3.082,0,0,1,.411.06v2.258a2.646,2.646,0,0,0-.685-.1c-.992,0-2.082.608-2.082,2.477v5.479h-2.411Z" transform="translate(-93.154 -12.728)" fill="#231f20"/>
    <path id="Path_14845" data-name="Path 14845" d="M219.542,36.123c1.342,0,1.808-1.3,1.808-3.288,0-2.318-.373-3.485-1.77-3.485s-1.912,1.534-1.912,3.425.548,3.364,1.874,3.364m-4.285-6.685a13.486,13.486,0,0,0-.077-1.71h2.258a13.589,13.589,0,0,1,.077,1.556h.06a2.7,2.7,0,0,1,2.668-1.715c2.488,0,3.518,2.378,3.518,5.162,0,3.288-1.3,5.178-3.458,5.178a2.685,2.685,0,0,1-2.592-1.595h-.044v5.616h-2.411Z" transform="translate(-98.457 -12.742)" fill="#231f20"/>
    <path id="Path_14846" data-name="Path 14846" d="M21.212,41.29,3.1,41.9c-.027.11-.055.23-.077.345l19.085,1c-.3-.641-.6-1.293-.893-1.956" transform="translate(-2.549 -18.939)" fill="#007853"/>
    <path id="Path_14847" data-name="Path 14847" d="M24.253,18.781l-8.466.548-.427.466,8.652.389c.066-.488.142-.959.241-1.414" transform="translate(-8.127 -8.759)" fill="#007853"/>
    <path id="Path_14848" data-name="Path 14848" d="M21.242,26.268l-11.386.51c-.121.181-.241.362-.356.548l11.995.548a11.123,11.123,0,0,1-.252-1.644" transform="translate(-5.478 -12.131)" fill="#007853"/>
    <path id="Path_14849" data-name="Path 14849" d="M29.234,11.46l-5.205.411c-.23.164-.449.329-.674.5l-.164.132,5.479.148a12.6,12.6,0,0,1,.548-1.195" transform="translate(-11.667 -5.455)" fill="#007853"/>
    <path id="Path_14850" data-name="Path 14850" d="M20.591,33.86l-14.866.548L5.55,34.8l15.89.822a13.931,13.931,0,0,1-.849-1.759" transform="translate(-3.692 -15.581)" fill="#007853"/>
    <path id="Path_14851" data-name="Path 14851" d="M43.881,19.089l20.63.932a13.753,13.753,0,0,0-.7-4.46L43.18,16.9a17.28,17.28,0,0,0,.7,2.192" transform="translate(-20.703 -7.308)" fill="#007853"/>
    <path id="Path_14852" data-name="Path 14852" d="M38,3.06A32.515,32.515,0,0,0,33.15,5.148l2.3.071A11.561,11.561,0,0,1,38,3.06" transform="translate(-16.169 -1.657)" fill="#007853"/>
    <path id="Path_14853" data-name="Path 14853" d="M22.664,48.57l-20.5.685v.312L23.628,50.8c-.279-.718-.608-1.458-.964-2.23" transform="translate(-2.16 -22.23)" fill="#007853"/>
    <path id="Path_14854" data-name="Path 14854" d="M61.732,8.818c-.186-.236-.378-.455-.548-.668L42.993,9.575c-.038.115-.088.23-.132.351A4.093,4.093,0,0,0,42.62,11.3l20.822.548a11.748,11.748,0,0,0-1.71-3.03" transform="translate(-20.45 -3.958)" fill="#007853"/>
    <path id="Path_14855" data-name="Path 14855" d="M50.523.515A6.51,6.51,0,0,0,45,4.131L62.058,4.5C59.318,1.627,55.181.323,50.551.515" transform="translate(-21.526 -0.498)" fill="#007853"/>
    <path id="Path_14856" data-name="Path 14856" d="M50.434,34.631h0c.115.236.225.46.329.7l14.6.751A24.351,24.351,0,0,0,66.8,32.16l-17.211.608c.3.636.586,1.26.844,1.863" transform="translate(-23.601 -14.812)" fill="#007853"/>
    <path id="Path_14857" data-name="Path 14857" d="M53.849,43.082l10.718.548a28.116,28.116,0,0,0,2.192-3.77L53,40.337a13.759,13.759,0,0,1,.86,2.74" transform="translate(-25.142 -18.293)" fill="#007853"/>
    <path id="Path_14858" data-name="Path 14858" d="M47.129,27.322l18.082.871a18.631,18.631,0,0,0,.548-4.2L46,24.883c.362.811.745,1.644,1.134,2.438" transform="translate(-21.978 -11.119)" fill="#007853"/>
    <path id="Path_14859" data-name="Path 14859" d="M54.584,49.205c-.06.521-.126,1.014-.214,1.49l7.545.433a33.6,33.6,0,0,0,3.025-3.7l-10.318.345a8.377,8.377,0,0,1-.038,1.43" transform="translate(-25.762 -21.715)" fill="#007853"/>
    <path id="Path_14860" data-name="Path 14860" d="M26.226,63.39l-19.5.641v.038c.121.159.258.307.389.455l18,1.1a15.371,15.371,0,0,0,1.1-2.192" transform="translate(-4.226 -28.93)" fill="#007853"/>
    <path id="Path_14861" data-name="Path 14861" d="M27.833,70.76l-11.753.384a18.022,18.022,0,0,0,8.263,1.03,6.576,6.576,0,0,0,3.49-1.414" transform="translate(-8.453 -32.261)" fill="#007853"/>
    <path id="Path_14862" data-name="Path 14862" d="M24.694,56.05,3.11,56.773c.027.115.066.23.1.345l21.8,1.26a7.545,7.545,0,0,0-.318-2.329" transform="translate(-2.589 -25.612)" fill="#007853"/>
    <path id="Path_14863" data-name="Path 14863" d="M47.21,65.6l1.266.077A35.952,35.952,0,0,0,53.15,62.89l-3.863.121A11.424,11.424,0,0,1,47.232,65.6" transform="translate(-22.525 -28.704)" fill="#007853"/>
    <path id="Path_14864" data-name="Path 14864" d="M52.15,58.288l4.422.258.307-.23a36.637,36.637,0,0,0,3.479-3.1l-7.249.247a16.355,16.355,0,0,1-.959,2.822" transform="translate(-24.758 -25.236)" fill="#007853"/>
  </g>
</svg>